ffmpeg started on 2025-06-04 at 20:45:41
Report written to "D:\Convert\FFMetrics\reports\psnr_report-6.txt"
Log level: 32
Command line:
ffmpeg -hide_banner -nostdin -i "G:\\\xc0\xed\xe8\xec\xe5\\\xce\xed\xe3\xee\xe8\xed\xe3\xe8\\!_36_\xce\xf1\xe5\xed\xfc_2024\\DreamCast\\\xc4\xe5\xf2\xf1\xea\xe0\xff \xc4\xe5\xeb\xe8\xea\xee\\[DC] Delicos Nursery - 07_Telegram_HEVC.mkv" -i "G:\\\xc0\xed\xe8\xec\xe5\\\xce\xed\xe3\xee\xe8\xed\xe3\xe8\\!_36_\xce\xf1\xe5\xed\xfc_2024\\DreamCast\\\xc4\xe5\xf2\xf1\xea\xe0\xff \xc4\xe5\xeb\xe8\xea\xee\\[DC] Delicos Nursery - 07_Telegram.mp4" -lavfi "[0:v]settb=AVTB,setpts=PTS-STARTPTS,format=pix_fmts=yuv420p10,fps=24000/1001,scale=1920:1080:flags=bicubic[main];[1:v]settb=AVTB,setpts=PTS-STARTPTS,format=pix_fmts=yuv420p,fps=24000/1001,scale=1920:1080:flags=bicubic[ref];[main][ref]psnr=eof_action=endall:stats_file='D\\:/Convert/FFMetrics/logs/psnr_logfile-6.txt'" -f null -
Input #0, matroska,webm, from 'G:\Аниме\Онгоинги\!_36_Осень_2024\DreamCast\Детская Делико\[DC] Delicos Nursery - 07_Telegram_HEVC.mkv':
  Metadata:
    COMPATIBLE_BRANDS: isomiso2avc1mp41
    MAJOR_BRAND     : isom
    MINOR_VERSION   : 512
    ENCODER         : Lavf61.7.100
  Duration: 00:23:46.65, start: -0.021000, bitrate: 1918 kb/s
  Stream #0:0: Video: hevc (Main 10), yuv420p10le(tv, bt709, progressive), 1920x1080 [SAR 1:1 DAR 16:9], 23.98 fps, 23.98 tbr, 1k tbn (default)
      Metadata:
        HANDLER_NAME    : VideoHandler
        VENDOR_ID       : [0][0][0][0]
        ENCODER         : Lavc61.19.100 libx265
        BPS             : 1721470
        DURATION        : 00:23:46.549708333
        NUMBER_OF_FRAMES: 34203
        NUMBER_OF_BYTES : 306970256
        _STATISTICS_WRITING_APP: mkvpropedit v66.0.0 ('Josie') 64-bit
        _STATISTICS_WRITING_DATE_UTC: 2025-05-30 12:54:25
        _STATISTICS_TAGS: BPS DURATION NUMBER_OF_FRAMES NUMBER_OF_BYTES
  Stream #0:1: Audio: aac (LC), 48000 Hz, stereo, fltp (default)
      Metadata:
        HANDLER_NAME    : SoundHandler
        VENDOR_ID       : [0][0][0][0]
        ENCODER         : Lavc61.19.100 aac
        BPS             : 193532
        DURATION        : 00:23:46.645000000
        NUMBER_OF_FRAMES: 66875
        NUMBER_OF_BYTES : 34512835
        _STATISTICS_WRITING_APP: mkvpropedit v66.0.0 ('Josie') 64-bit
        _STATISTICS_WRITING_DATE_UTC: 2025-05-30 12:54:25
        _STATISTICS_TAGS: BPS DURATION NUMBER_OF_FRAMES NUMBER_OF_BYTES
Input #1, mov,mp4,m4a,3gp,3g2,mj2, from 'G:\Аниме\Онгоинги\!_36_Осень_2024\DreamCast\Детская Делико\[DC] Delicos Nursery - 07_Telegram.mp4':
  Metadata:
    major_brand     : isom
    minor_version   : 512
    compatible_brands: isomiso2avc1mp41
    encoder         : Lavf61.1.100
  Duration: 00:23:46.62, start: 0.000000, bitrate: 3942 kb/s
  Stream #1:0[0x1](und): Video: h264 (High) (avc1 / 0x31637661), yuv420p(tv, bt709, progressive), 1920x1080 [SAR 1:1 DAR 16:9], 3794 kb/s, 23.98 fps, 23.98 tbr, 24k tbn (default)
      Metadata:
        handler_name    : VideoHandler
        vendor_id       : [0][0][0][0]
        encoder         : Lavc61.3.100 h264_qsv
  Stream #1:1[0x2](und): Audio: aac (HE-AACv2) (mp4a / 0x6134706D), 48000 Hz, stereo, fltp, 144 kb/s (default)
      Metadata:
        handler_name    : SoundHandler
        vendor_id       : [0][0][0][0]
Stream mapping:
  Stream #0:0 (hevc) -> settb:default
  Stream #1:0 (h264) -> settb:default
  psnr:default -> Stream #0:0 (wrapped_avframe)
  Stream #0:1 -> #0:1 (aac (native) -> pcm_s16le (native))
Output #0, null, to 'pipe:':
  Metadata:
    COMPATIBLE_BRANDS: isomiso2avc1mp41
    MAJOR_BRAND     : isom
    MINOR_VERSION   : 512
    encoder         : Lavf61.7.100
  Stream #0:0: Video: wrapped_avframe, yuv420p10le(tv, bt709, progressive), 1920x1080 [SAR 1:1 DAR 16:9], q=2-31, 200 kb/s, 23.98 fps, 23.98 tbn
      Metadata:
        encoder         : Lavc61.19.100 wrapped_avframe
  Stream #0:1: Audio: pcm_s16le, 48000 Hz, stereo, s16, 1536 kb/s (default)
      Metadata:
        HANDLER_NAME    : SoundHandler
        VENDOR_ID       : [0][0][0][0]
        _STATISTICS_TAGS: BPS DURATION NUMBER_OF_FRAMES NUMBER_OF_BYTES
        BPS             : 193532
        DURATION        : 00:23:46.645000000
        NUMBER_OF_FRAMES: 66875
        NUMBER_OF_BYTES : 34512835
        _STATISTICS_WRITING_APP: mkvpropedit v66.0.0 ('Josie') 64-bit
        _STATISTICS_WRITING_DATE_UTC: 2025-05-30 12:54:25
        encoder         : Lavc61.19.100 pcm_s16le
frame=  155 fps=0.0 q=-0.0 size=N/A time=00:00:06.46 bitrate=N/A speed=12.6x    frame=  366 fps=359 q=-0.0 size=N/A time=00:00:15.26 bitrate=N/A speed=  15x    frame=  603 fps=391 q=-0.0 size=N/A time=00:00:25.15 bitrate=N/A speed=16.3x    frame=  822 fps=401 q=-0.0 size=N/A time=00:00:34.28 bitrate=N/A speed=16.7x    frame= 1060 fps=411 q=-0.0 size=N/A time=00:00:44.21 bitrate=N/A speed=17.2x    frame= 1282 fps=415 q=-0.0 size=N/A time=00:00:53.47 bitrate=N/A speed=17.3x    frame= 1546 fps=429 q=-0.0 size=N/A time=00:01:04.48 bitrate=N/A speed=17.9x    frame= 1792 fps=435 q=-0.0 size=N/A time=00:01:14.74 bitrate=N/A speed=18.2x    frame= 2006 fps=433 q=-0.0 size=N/A time=00:01:23.66 bitrate=N/A speed=18.1x    frame= 2236 fps=434 q=-0.0 size=N/A time=00:01:33.25 bitrate=N/A speed=18.1x    frame= 2451 fps=433 q=-0.0 size=N/A time=00:01:42.22 bitrate=N/A speed=18.1x    frame= 2655 fps=429 q=-0.0 size=N/A time=00:01:50.73 bitrate=N/A speed=17.9x    frame= 2890 fps=432 q=-0.0 size=N/A time=00:02:00.53 bitrate=N/A speed=  18x    frame= 3068 fps=425 q=-0.0 size=N/A time=00:02:07.96 bitrate=N/A speed=17.7x    frame= 3283 fps=424 q=-0.0 size=N/A time=00:02:16.92 bitrate=N/A speed=17.7x    frame= 3493 fps=423 q=-0.0 size=N/A time=00:02:25.68 bitrate=N/A speed=17.7x    frame= 3700 fps=422 q=-0.0 size=N/A time=00:02:34.32 bitrate=N/A speed=17.6x    frame= 3866 fps=416 q=-0.0 size=N/A time=00:02:41.24 bitrate=N/A speed=17.4x    frame= 4054 fps=413 q=-0.0 size=N/A time=00:02:49.08 bitrate=N/A speed=17.2x    frame= 4228 fps=410 q=-0.0 size=N/A time=00:02:56.34 bitrate=N/A speed=17.1x    frame= 4432 fps=409 q=-0.0 size=N/A time=00:03:04.85 bitrate=N/A speed=  17x    frame= 4613 fps=407 q=-0.0 size=N/A time=00:03:12.40 bitrate=N/A speed=  17x    frame= 4825 fps=407 q=-0.0 size=N/A time=00:03:21.24 bitrate=N/A speed=  17x    frame= 5034 fps=406 q=-0.0 size=N/A time=00:03:29.95 bitrate=N/A speed=16.9x    frame= 5259 fps=407 q=-0.0 size=N/A time=00:03:39.34 bitrate=N/A speed=  17x    frame= 5455 fps=406 q=-0.0 size=N/A time=00:03:47.51 bitrate=N/A speed=16.9x    frame= 5686 fps=408 q=-0.0 size=N/A time=00:03:57.15 bitrate=N/A speed=  17x    frame= 5936 fps=410 q=-0.0 size=N/A time=00:04:07.58 bitrate=N/A speed=17.1x    frame= 6201 fps=414 q=-0.0 size=N/A time=00:04:18.63 bitrate=N/A speed=17.3x    frame= 6434 fps=415 q=-0.0 size=N/A time=00:04:28.35 bitrate=N/A speed=17.3x    frame= 6650 fps=415 q=-0.0 size=N/A time=00:04:37.36 bitrate=N/A speed=17.3x    frame= 6870 fps=415 q=-0.0 size=N/A time=00:04:46.53 bitrate=N/A speed=17.3x    frame= 7103 fps=416 q=-0.0 size=N/A time=00:04:56.25 bitrate=N/A speed=17.4x    frame= 7319 fps=417 q=-0.0 size=N/A time=00:05:05.26 bitrate=N/A speed=17.4x    frame= 7515 fps=416 q=-0.0 size=N/A time=00:05:13.43 bitrate=N/A speed=17.3x    frame= 7735 fps=416 q=-0.0 size=N/A time=00:05:22.61 bitrate=N/A speed=17.3x    frame= 7909 fps=414 q=-0.0 size=N/A time=00:05:29.87 bitrate=N/A speed=17.2x    frame= 8129 fps=414 q=-0.0 size=N/A time=00:05:39.04 bitrate=N/A speed=17.3x    frame= 8366 fps=415 q=-0.0 size=N/A time=00:05:48.93 bitrate=N/A speed=17.3x    frame= 8574 fps=415 q=-0.0 size=N/A time=00:05:57.60 bitrate=N/A speed=17.3x    frame= 8798 fps=415 q=-0.0 size=N/A time=00:06:06.94 bitrate=N/A speed=17.3x    frame= 8963 fps=413 q=-0.0 size=N/A time=00:06:13.83 bitrate=N/A speed=17.2x    frame= 9161 fps=412 q=-0.0 size=N/A time=00:06:22.09 bitrate=N/A speed=17.2x    frame= 9295 fps=409 q=-0.0 size=N/A time=00:06:27.67 bitrate=N/A speed=17.1x    frame= 9473 fps=407 q=-0.0 size=N/A time=00:06:35.10 bitrate=N/A speed=  17x    frame= 9687 fps=408 q=-0.0 size=N/A time=00:06:44.02 bitrate=N/A speed=  17x    frame= 9871 fps=407 q=-0.0 size=N/A time=00:06:51.70 bitrate=N/A speed=  17x    frame=10052 fps=405 q=-0.0 size=N/A time=00:06:59.25 bitrate=N/A speed=16.9x    frame=10229 fps=404 q=-0.0 size=N/A time=00:07:06.63 bitrate=N/A speed=16.9x    frame=10412 fps=403 q=-0.0 size=N/A time=00:07:14.26 bitrate=N/A speed=16.8x    frame=10585 fps=402 q=-0.0 size=N/A time=00:07:21.48 bitrate=N/A speed=16.8x    frame=10812 fps=403 q=-0.0 size=N/A time=00:07:30.95 bitrate=N/A speed=16.8x    frame=11022 fps=403 q=-0.0 size=N/A time=00:07:39.70 bitrate=N/A speed=16.8x    frame=11212 fps=402 q=-0.0 size=N/A time=00:07:47.63 bitrate=N/A speed=16.8x    frame=11404 fps=401 q=-0.0 size=N/A time=00:07:55.64 bitrate=N/A speed=16.7x    frame=11588 fps=401 q=-0.0 size=N/A time=00:08:03.31 bitrate=N/A speed=16.7x    frame=11790 fps=401 q=-0.0 size=N/A time=00:08:11.74 bitrate=N/A speed=16.7x    frame=11980 fps=400 q=-0.0 size=N/A time=00:08:19.66 bitrate=N/A speed=16.7x    frame=12159 fps=399 q=-0.0 size=N/A time=00:08:27.13 bitrate=N/A speed=16.6x    frame=12394 fps=400 q=-0.0 size=N/A time=00:08:36.93 bitrate=N/A speed=16.7x    frame=12612 fps=400 q=-0.0 size=N/A time=00:08:46.02 bitrate=N/A speed=16.7x    frame=12789 fps=400 q=-0.0 size=N/A time=00:08:53.40 bitrate=N/A speed=16.7x    frame=12999 fps=400 q=-0.0 size=N/A time=00:09:02.16 bitrate=N/A speed=16.7x    frame=13241 fps=401 q=-0.0 size=N/A time=00:09:12.26 bitrate=N/A speed=16.7x    frame=13453 fps=401 q=-0.0 size=N/A time=00:09:21.10 bitrate=N/A speed=16.7x    frame=13701 fps=402 q=-0.0 size=N/A time=00:09:31.44 bitrate=N/A speed=16.8x    frame=13891 fps=402 q=-0.0 size=N/A time=00:09:39.37 bitrate=N/A speed=16.8x    frame=14084 fps=401 q=-0.0 size=N/A time=00:09:47.42 bitrate=N/A speed=16.7x    frame=14262 fps=400 q=-0.0 size=N/A time=00:09:54.84 bitrate=N/A speed=16.7x    frame=14441 fps=400 q=-0.0 size=N/A time=00:10:02.31 bitrate=N/A speed=16.7x    frame=14650 fps=400 q=-0.0 size=N/A time=00:10:11.02 bitrate=N/A speed=16.7x    frame=14876 fps=400 q=-0.0 size=N/A time=00:10:20.45 bitrate=N/A speed=16.7x    frame=15066 fps=400 q=-0.0 size=N/A time=00:10:28.37 bitrate=N/A speed=16.7x    frame=15280 fps=400 q=-0.0 size=N/A time=00:10:37.30 bitrate=N/A speed=16.7x    frame=15495 fps=400 q=-0.0 size=N/A time=00:10:46.27 bitrate=N/A speed=16.7x    frame=15706 fps=400 q=-0.0 size=N/A time=00:10:55.07 bitrate=N/A speed=16.7x    frame=15926 fps=401 q=-0.0 size=N/A time=00:11:04.24 bitrate=N/A speed=16.7x    frame=16104 fps=400 q=-0.0 size=N/A time=00:11:11.67 bitrate=N/A speed=16.7x    frame=16300 fps=400 q=-0.0 size=N/A time=00:11:19.84 bitrate=N/A speed=16.7x    frame=16477 fps=399 q=-0.0 size=N/A time=00:11:27.22 bitrate=N/A speed=16.6x    frame=16654 fps=398 q=-0.0 size=N/A time=00:11:34.61 bitrate=N/A speed=16.6x    frame=16879 fps=399 q=-0.0 size=N/A time=00:11:43.99 bitrate=N/A speed=16.6x    frame=17049 fps=398 q=-0.0 size=N/A time=00:11:51.08 bitrate=N/A speed=16.6x    frame=17217 fps=397 q=-0.0 size=N/A time=00:11:58.09 bitrate=N/A speed=16.6x    frame=17461 fps=398 q=-0.0 size=N/A time=00:12:08.26 bitrate=N/A speed=16.6x    frame=17677 fps=398 q=-0.0 size=N/A time=00:12:17.27 bitrate=N/A speed=16.6x    frame=17898 fps=399 q=-0.0 size=N/A time=00:12:26.49 bitrate=N/A speed=16.6x    frame=18123 fps=399 q=-0.0 size=N/A time=00:12:35.88 bitrate=N/A speed=16.6x    frame=18354 fps=400 q=-0.0 size=N/A time=00:12:45.51 bitrate=N/A speed=16.7x    frame=18600 fps=400 q=-0.0 size=N/A time=00:12:55.77 bitrate=N/A speed=16.7x    frame=18807 fps=400 q=-0.0 size=N/A time=00:13:04.40 bitrate=N/A speed=16.7x    frame=19004 fps=400 q=-0.0 size=N/A time=00:13:12.62 bitrate=N/A speed=16.7x    frame=19213 fps=400 q=-0.0 size=N/A time=00:13:21.34 bitrate=N/A speed=16.7x    frame=19416 fps=400 q=-0.0 size=N/A time=00:13:29.80 bitrate=N/A speed=16.7x    frame=19654 fps=401 q=-0.0 size=N/A time=00:13:39.77 bitrate=N/A speed=16.7x    frame=19879 fps=401 q=-0.0 size=N/A time=00:13:49.11 bitrate=N/A speed=16.7x    frame=20111 fps=402 q=-0.0 size=N/A time=00:13:58.79 bitrate=N/A speed=16.8x    frame=20345 fps=402 q=-0.0 size=N/A time=00:14:08.55 bitrate=N/A speed=16.8x    frame=20559 fps=402 q=-0.0 size=N/A time=00:14:17.48 bitrate=N/A speed=16.8x    frame=20774 fps=403 q=-0.0 size=N/A time=00:14:26.44 bitrate=N/A speed=16.8x    frame=20994 fps=403 q=-0.0 size=N/A time=00:14:35.62 bitrate=N/A speed=16.8x    frame=21219 fps=403 q=-0.0 size=N/A time=00:14:45.00 bitrate=N/A speed=16.8x    frame=21441 fps=403 q=-0.0 size=N/A time=00:14:54.26 bitrate=N/A speed=16.8x    frame=21664 fps=404 q=-0.0 size=N/A time=00:15:03.56 bitrate=N/A speed=16.8x    frame=21879 fps=404 q=-0.0 size=N/A time=00:15:12.53 bitrate=N/A speed=16.8x    frame=22116 fps=404 q=-0.0 size=N/A time=00:15:22.42 bitrate=N/A speed=16.9x    frame=22356 fps=405 q=-0.0 size=N/A time=00:15:32.43 bitrate=N/A speed=16.9x    frame=22598 fps=405 q=-0.0 size=N/A time=00:15:42.52 bitrate=N/A speed=16.9x    frame=22855 fps=406 q=-0.0 size=N/A time=00:15:53.24 bitrate=N/A speed=16.9x    frame=23072 fps=407 q=-0.0 size=N/A time=00:16:02.29 bitrate=N/A speed=  17x    frame=23321 fps=407 q=-0.0 size=N/A time=00:16:12.68 bitrate=N/A speed=  17x    frame=23543 fps=407 q=-0.0 size=N/A time=00:16:21.93 bitrate=N/A speed=  17x    frame=23801 fps=408 q=-0.0 size=N/A time=00:16:32.70 bitrate=N/A speed=  17x    frame=24032 fps=409 q=-0.0 size=N/A time=00:16:42.33 bitrate=N/A speed=  17x    frame=24279 fps=409 q=-0.0 size=N/A time=00:16:52.63 bitrate=N/A speed=17.1x    frame=24539 fps=410 q=-0.0 size=N/A time=00:17:03.48 bitrate=N/A speed=17.1x    frame=24742 fps=410 q=-0.0 size=N/A time=00:17:11.94 bitrate=N/A speed=17.1x    frame=24953 fps=410 q=-0.0 size=N/A time=00:17:20.74 bitrate=N/A speed=17.1x    frame=25172 fps=410 q=-0.0 size=N/A time=00:17:29.88 bitrate=N/A speed=17.1x    frame=25412 fps=410 q=-0.0 size=N/A time=00:17:39.89 bitrate=N/A speed=17.1x    frame=25682 fps=411 q=-0.0 size=N/A time=00:17:51.15 bitrate=N/A speed=17.2x    frame=25919 fps=412 q=-0.0 size=N/A time=00:18:01.03 bitrate=N/A speed=17.2x    frame=26174 fps=412 q=-0.0 size=N/A time=00:18:11.67 bitrate=N/A speed=17.2x    frame=26434 fps=413 q=-0.0 size=N/A time=00:18:22.51 bitrate=N/A speed=17.2x    frame=26687 fps=414 q=-0.0 size=N/A time=00:18:33.07 bitrate=N/A speed=17.3x    frame=26870 fps=413 q=-0.0 size=N/A time=00:18:40.70 bitrate=N/A speed=17.2x    frame=27056 fps=413 q=-0.0 size=N/A time=00:18:48.46 bitrate=N/A speed=17.2x    frame=27287 fps=413 q=-0.0 size=N/A time=00:18:58.09 bitrate=N/A speed=17.2x    frame=27506 fps=413 q=-0.0 size=N/A time=00:19:07.22 bitrate=N/A speed=17.2x    frame=27767 fps=414 q=-0.0 size=N/A time=00:19:18.11 bitrate=N/A speed=17.3x    frame=27941 fps=413 q=-0.0 size=N/A time=00:19:25.37 bitrate=N/A speed=17.2x    frame=28175 fps=414 q=-0.0 size=N/A time=00:19:35.13 bitrate=N/A speed=17.3x    frame=28344 fps=413 q=-0.0 size=N/A time=00:19:42.18 bitrate=N/A speed=17.2x    frame=28563 fps=413 q=-0.0 size=N/A time=00:19:51.31 bitrate=N/A speed=17.2x    frame=28803 fps=414 q=-0.0 size=N/A time=00:20:01.32 bitrate=N/A speed=17.2x    frame=29067 fps=414 q=-0.0 size=N/A time=00:20:12.33 bitrate=N/A speed=17.3x    frame=29322 fps=415 q=-0.0 size=N/A time=00:20:22.97 bitrate=N/A speed=17.3x    frame=29582 fps=416 q=-0.0 size=N/A time=00:20:33.81 bitrate=N/A speed=17.3x    frame=29840 fps=416 q=-0.0 size=N/A time=00:20:44.57 bitrate=N/A speed=17.4x    frame=30079 fps=416 q=-0.0 size=N/A time=00:20:54.54 bitrate=N/A speed=17.4x    frame=30320 fps=417 q=-0.0 size=N/A time=00:21:04.59 bitrate=N/A speed=17.4x    frame=30519 fps=417 q=-0.0 size=N/A time=00:21:12.89 bitrate=N/A speed=17.4x    frame=30727 fps=416 q=-0.0 size=N/A time=00:21:21.57 bitrate=N/A speed=17.4x    frame=30944 fps=416 q=-0.0 size=N/A time=00:21:30.62 bitrate=N/A speed=17.4x    frame=31165 fps=417 q=-0.0 size=N/A time=00:21:39.84 bitrate=N/A speed=17.4x    frame=31403 fps=417 q=-0.0 size=N/A time=00:21:49.76 bitrate=N/A speed=17.4x    frame=31573 fps=416 q=-0.0 size=N/A time=00:21:56.85 bitrate=N/A speed=17.4x    frame=31819 fps=417 q=-0.0 size=N/A time=00:22:07.11 bitrate=N/A speed=17.4x    frame=31976 fps=416 q=-0.0 size=N/A time=00:22:13.66 bitrate=N/A speed=17.3x    frame=32133 fps=415 q=-0.0 size=N/A time=00:22:20.21 bitrate=N/A speed=17.3x    frame=32278 fps=414 q=-0.0 size=N/A time=00:22:26.26 bitrate=N/A speed=17.3x    frame=32419 fps=413 q=-0.0 size=N/A time=00:22:32.14 bitrate=N/A speed=17.2x    frame=32571 fps=413 q=-0.0 size=N/A time=00:22:38.48 bitrate=N/A speed=17.2x    frame=32734 fps=412 q=-0.0 size=N/A time=00:22:45.28 bitrate=N/A speed=17.2x    frame=32918 fps=412 q=-0.0 size=N/A time=00:22:52.95 bitrate=N/A speed=17.2x    frame=33096 fps=411 q=-0.0 size=N/A time=00:23:00.37 bitrate=N/A speed=17.1x    frame=33271 fps=411 q=-0.0 size=N/A time=00:23:07.67 bitrate=N/A speed=17.1x    frame=33431 fps=410 q=-0.0 size=N/A time=00:23:14.35 bitrate=N/A speed=17.1x    frame=33590 fps=409 q=-0.0 size=N/A time=00:23:20.98 bitrate=N/A speed=17.1x    frame=33778 fps=409 q=-0.0 size=N/A time=00:23:28.82 bitrate=N/A speed=17.1x    frame=33976 fps=409 q=-0.0 size=N/A time=00:23:37.08 bitrate=N/A speed=17.1x    frame=34197 fps=409 q=-0.0 size=N/A time=00:23:46.29 bitrate=N/A speed=17.1x    [Parsed_psnr_10 @ 00000278dfdb3340] PSNR y:46.093689 u:49.173354 v:48.642923 average:46.843939 min:34.802025 max:inf
[out#0/null @ 00000278dfdbf2c0] video:14697KiB audio:267500KiB subtitle:0KiB other streams:0KiB global headers:0KiB muxing overhead: unknown
frame=34203 fps=409 q=-0.0 Lsize=N/A time=00:23:46.55 bitrate=N/A speed=17.1x    
